<svg id="visual" viewBox="0 0 1980 600" width="1980" height="600" xmlns="http://www.w3.org/2000/svg" xmlns:xlink="http://www.w3.org/1999/xlink" version="1.1"><rect x="0" y="0" width="1980" height="600" fill="#E1BEE7"></rect><path d="M0 49L36.7 57C73.3 65 146.7 81 220 100.8C293.3 120.7 366.7 144.3 440 149.3C513.3 154.3 586.7 140.7 660 124.3C733.3 108 806.7 89 880 95.5C953.3 102 1026.7 134 1100 131.2C1173.3 128.3 1246.7 90.7 1320 82.8C1393.3 75 1466.7 97 1540 114C1613.3 131 1686.7 143 1760 150.5C1833.3 158 1906.7 161 1943.3 162.5L1980 164L1980 601L1943.3 601C1906.7 601 1833.3 601 1760 601C1686.7 601 1613.3 601 1540 601C1466.7 601 1393.3 601 1320 601C1246.7 601 1173.3 601 1100 601C1026.7 601 953.3 601 880 601C806.7 601 733.3 601 660 601C586.7 601 513.3 601 440 601C366.7 601 293.3 601 220 601C146.7 601 73.3 601 36.7 601L0 601Z" fill="#e1bee7"></path><path d="M0 158L36.7 170.5C73.3 183 146.7 208 220 213C293.3 218 366.7 203 440 193.7C513.3 184.3 586.7 180.7 660 174C733.3 167.3 806.7 157.7 880 160.2C953.3 162.7 1026.7 177.3 1100 195.7C1173.3 214 1246.7 236 1320 242.7C1393.3 249.3 1466.7 240.7 1540 237.5C1613.3 234.3 1686.7 236.7 1760 233.3C1833.3 230 1906.7 221 1943.3 216.5L1980 212L1980 601L1943.3 601C1906.7 601 1833.3 601 1760 601C1686.7 601 1613.3 601 1540 601C1466.7 601 1393.3 601 1320 601C1246.7 601 1173.3 601 1100 601C1026.7 601 953.3 601 880 601C806.7 601 733.3 601 660 601C586.7 601 513.3 601 440 601C366.7 601 293.3 601 220 601C146.7 601 73.3 601 36.7 601L0 601Z" fill="#bbcffc"></path><path d="M0 276L36.7 282.7C73.3 289.3 146.7 302.7 220 296.3C293.3 290 366.7 264 440 252.3C513.3 240.7 586.7 243.3 660 263.3C733.3 283.3 806.7 320.7 880 323C953.3 325.3 1026.7 292.7 1100 292C1173.3 291.3 1246.7 322.7 1320 329.5C1393.3 336.3 1466.7 318.7 1540 306.7C1613.3 294.7 1686.7 288.3 1760 291.8C1833.3 295.3 1906.7 308.7 1943.3 315.3L1980 322L1980 601L1943.3 601C1906.7 601 1833.3 601 1760 601C1686.7 601 1613.3 601 1540 601C1466.7 601 1393.3 601 1320 601C1246.7 601 1173.3 601 1100 601C1026.7 601 953.3 601 880 601C806.7 601 733.3 601 660 601C586.7 601 513.3 601 440 601C366.7 601 293.3 601 220 601C146.7 601 73.3 601 36.7 601L0 601Z" fill="#9dddf7"></path><path d="M0 350L36.7 367.5C73.3 385 146.7 420 220 430.3C293.3 440.7 366.7 426.3 440 413C513.3 399.7 586.7 387.3 660 387C733.3 386.7 806.7 398.3 880 400.3C953.3 402.3 1026.7 394.7 1100 388C1173.3 381.3 1246.7 375.7 1320 377C1393.3 378.3 1466.7 386.7 1540 397.2C1613.3 407.7 1686.7 420.3 1760 423C1833.3 425.7 1906.7 418.3 1943.3 414.7L1980 411L1980 601L1943.3 601C1906.7 601 1833.3 601 1760 601C1686.7 601 1613.3 601 1540 601C1466.7 601 1393.3 601 1320 601C1246.7 601 1173.3 601 1100 601C1026.7 601 953.3 601 880 601C806.7 601 733.3 601 660 601C586.7 601 513.3 601 440 601C366.7 601 293.3 601 220 601C146.7 601 73.3 601 36.7 601L0 601Z" fill="#a2e6df"></path><path d="M0 435L36.7 436.8C73.3 438.7 146.7 442.3 220 462.5C293.3 482.7 366.7 519.3 440 526.5C513.3 533.7 586.7 511.3 660 495.8C733.3 480.3 806.7 471.7 880 465C953.3 458.3 1026.7 453.7 1100 460.7C1173.3 467.7 1246.7 486.3 1320 497.3C1393.3 508.3 1466.7 511.7 1540 500.3C1613.3 489 1686.7 463 1760 456.2C1833.3 449.3 1906.7 461.7 1943.3 467.8L1980 474L1980 601L1943.3 601C1906.7 601 1833.3 601 1760 601C1686.7 601 1613.3 601 1540 601C1466.7 601 1393.3 601 1320 601C1246.7 601 1173.3 601 1100 601C1026.7 601 953.3 601 880 601C806.7 601 733.3 601 660 601C586.7 601 513.3 601 440 601C366.7 601 293.3 601 220 601C146.7 601 73.3 601 36.7 601L0 601Z" fill="#c5e8c6"></path></svg>