<svg id="visual" viewBox="0 0 1980 300" width="1980" height="300" xmlns="http://www.w3.org/2000/svg" xmlns:xlink="http://www.w3.org/1999/xlink" version="1.1">
    <rect x="0" y="0" width="1980" height="300" fill="none"></rect>
    <path d="M0 200L41.3 189.5C82.7 179 165.3 158 247.8 150.5C330.3 143 412.7 149 495.2 156.8C577.7 164.7 660.3 174.3 742.8 180.5C825.3 186.7 907.7 189.3 990.2 190.7C1072.7 192 1155.3 192 1237.8 178C1320.3 164 1402.7 136 1485.2 124.7C1567.7 113.3 1650.3 118.7 1732.8 133.5C1815.3 148.3 1897.7 172.7 1938.8 184.8L1980 197L1980 301L1938.8 301C1897.7 301 1815.3 301 1732.8 301C1650.3 301 1567.7 301 1485.2 301C1402.7 301 1320.3 301 1237.8 301C1155.3 301 1072.7 301 990.2 301C907.7 301 825.3 301 742.8 301C660.3 301 577.7 301 495.2 301C412.7 301 330.3 301 247.8 301C165.3 301 82.7 301 41.3 301L0 301Z" fill="#E1BEE7" stroke-linecap="round" stroke-linejoin="miter"></path>
</svg>