<svg id="visual" viewBox="0 0 1980 600" width="1980" height="600" xmlns="http://www.w3.org/2000/svg" xmlns:xlink="http://www.w3.org/1999/xlink" version="1.1"><path d="M0 91L248 67L495 103L743 139L990 109L1238 103L1485 139L1733 109L1980 127L1980 0L1733 0L1485 0L1238 0L990 0L743 0L495 0L248 0L0 0Z" fill="#c5e8c6"></path><path d="M0 367L248 271L495 361L743 373L990 259L1238 259L1485 325L1733 319L1980 289L1980 125L1733 107L1485 137L1238 101L990 107L743 137L495 101L248 65L0 89Z" fill="#b2e5d5"></path><path d="M0 511L248 475L495 517L743 511L990 481L1238 469L1485 541L1733 469L1980 505L1980 287L1733 317L1485 323L1238 257L990 257L743 371L495 359L248 269L0 365Z" fill="#abdfe0"></path><path d="M0 601L248 601L495 601L743 601L990 601L1238 601L1485 601L1733 601L1980 601L1980 503L1733 467L1485 539L1238 467L990 479L743 509L495 515L248 473L0 509Z" fill="#add8e6"></path></svg>